<svg aria-hidden="true" style="position: absolute; width: 0; height: 0; overflow: hidden;" version="1.1" xmlns="http://www.w3.org/2000/svg" xmlns:xlink="http://www.w3.org/1999/xlink">
<defs>
<symbol id="icon-toLeftArrow" viewBox="0 0 17 32">
<path fill="#9d9d9d" style="fill: var(--color2, #9d9d9d)" d="M14.823 32l-14.823-16 14.823-16 2.631 2.84-12.192 13.16 12.192 13.16-2.631 2.84z"></path>
</symbol>
<symbol id="icon-toRightArrow" viewBox="0 0 17 32">
<path fill="#9d9d9d" style="fill: var(--color2, #9d9d9d)" d="M2.631 0l14.823 16-14.823 16-2.631-2.84 12.192-13.16-12.192-13.16 2.631-2.84z"></path>
</symbol>
<symbol id="icon-burger" viewBox="0 0 34 32">
<path  stroke-linejoin="miter" stroke-linecap="butt" stroke-miterlimit="4" stroke-width="1.6842" d="M3.368 2.526h26.947"></path>
<path stroke-linejoin="miter" stroke-linecap="butt" stroke-miterlimit="4" stroke-width="1.6842" d="M10.105 16h13.474"></path>
<path stroke-linejoin="miter" stroke-linecap="butt" stroke-miterlimit="4" stroke-width="1.6842" d="M3.368 29.474h26.947"></path>
</symbol>
<symbol id="icon-close" viewBox="0 0 32 32">
<path  stroke-linejoin="round" stroke-linecap="round" stroke-miterlimit="4"  d="M9.809 9.512l13.551 13.404M23.36 9.512l-13.551 13.404"></path>
</symbol>
<symbol id="icon-emailArchitrave" viewBox="0 0 32 32">
<path  d="M28.554 31.566h-24.094c-0.799 0-1.565-0.323-2.13-0.897s-0.882-1.353-0.882-2.165v-16.77c0.025-0.506 0.171-0.998 0.426-1.434s0.611-0.801 1.036-1.065l12.047-7.35c0.468-0.285 1.003-0.436 1.549-0.436s1.081 0.151 1.549 0.436l12.047 7.35c0.905 0.556 1.461 1.551 1.464 2.626v16.642c0 0.812-0.317 1.591-0.882 2.165s-1.331 0.897-2.13 0.897zM4.46 12.988v15.515h24.094v-15.515l-12.047 8.167-12.047-8.167zM16.507 4.51l-10.065 6.141 10.065 6.824 10.064-6.824-10.064-6.141z"></path>
</symbol>
<symbol id="icon-cancelArchitrave" viewBox="0 0 32 32">
<path fill="none" stroke="#fca311" style="stroke: var(--color2, #fca311)" stroke-linejoin="round" stroke-linecap="round" stroke-miterlimit="4" stroke-width="2.5899" d="M23.921 7.899l-15.539 15.539"></path>
<path fill="none" stroke="#fca311" style="stroke: var(--color2, #fca311)" stroke-linejoin="round" stroke-linecap="round" stroke-miterlimit="4" stroke-width="2.5899" d="M8.382 7.899l15.539 15.539"></path>
</symbol>
<symbol id="icon-email-modal" viewBox="0 0 39 32">
<path fill="none"  d="M37.333 5.333c0-1.956-1.6-3.556-3.556-3.556h-28.444c-1.956 0-3.556 1.6-3.556 3.556M37.333 5.333v21.333c0 1.956-1.6 3.556-3.556 3.556h-28.444c-1.956 0-3.556-1.6-3.556-3.556v-21.333M37.333 5.333l-17.778 12.444-17.778-12.444"></path>
</symbol>
<symbol id="icon-locationArchitrave" viewBox="0 0 26 32">
<path  d="M12.8 3.048c3.52 0 6.4 2.743 6.4 6.095 0 3.2-3.36 8.381-6.4 12.038-3.040-3.81-6.4-8.838-6.4-12.038 0-3.352 2.88-6.095 6.4-6.095zM12.8 0c-5.28 0-9.6 4.114-9.6 9.143 0 6.857 9.6 16.762 9.6 16.762s9.6-10.057 9.6-16.762c0-5.029-4.32-9.143-9.6-9.143zM12.8 6.095c-1.76 0-3.2 1.371-3.2 3.048s1.44 3.048 3.2 3.048c1.76 0 3.2-1.371 3.2-3.048s-1.44-3.048-3.2-3.048zM25.6 25.905c0 3.352-5.76 6.095-12.8 6.095s-12.8-2.743-12.8-6.095c0-1.981 1.92-3.657 4.96-4.876l0.96 1.371c-1.6 0.762-2.72 1.676-2.72 2.743 0 2.133 4.32 3.809 9.6 3.809s9.6-1.676 9.6-3.809c0-1.067-1.12-1.981-2.88-2.743l0.96-1.371c3.2 1.219 5.12 2.895 5.12 4.876z"></path>
</symbol>
<symbol id="icon-logo-architrave" viewBox="0 0 38 32">
<path  d="M26.823 19.846h-8.392l0.646 1.117h2.195v3.97h1.42v-3.97h3.098l2.066 2.978 2.066-2.978 3.615 6.079h-24.271l10.199-16.873 4.26 7.196h5.422l-10.070-16.749-18.462 30.769h36.923l-7.617-12.779-2.066 2.978-1.033-1.737z"></path>
</symbol>
<symbol id="icon-telArchitrave" viewBox="0 0 32 32">
<path d="M19.392 6.957c1.359 0.265 2.608 0.93 3.587 1.909s1.644 2.228 1.909 3.587M19.392 1.391c2.823 0.314 5.456 1.578 7.466 3.585s3.277 4.639 3.595 7.462M29.062 23.541v4.174c0.002 0.387-0.078 0.771-0.233 1.126s-0.383 0.674-0.668 0.936c-0.285 0.262-0.623 0.461-0.99 0.585s-0.756 0.17-1.142 0.135c-4.281-0.465-8.394-1.928-12.007-4.271-3.362-2.136-6.212-4.986-8.348-8.348-2.351-3.63-3.815-7.762-4.271-12.063-0.035-0.385 0.011-0.772 0.134-1.139s0.322-0.703 0.582-0.988c0.26-0.285 0.577-0.513 0.931-0.669s0.735-0.237 1.122-0.237h4.174c0.675-0.007 1.33 0.232 1.842 0.673s0.846 1.052 0.941 1.72c0.176 1.336 0.503 2.647 0.974 3.91 0.187 0.498 0.228 1.039 0.117 1.559s-0.369 0.998-0.743 1.376l-1.767 1.767c1.981 3.483 4.865 6.367 8.348 8.348l1.767-1.767c0.378-0.374 0.856-0.632 1.376-0.743s1.062-0.070 1.559 0.117c1.262 0.471 2.574 0.798 3.91 0.974 0.676 0.095 1.293 0.436 1.734 0.957s0.676 1.186 0.659 1.868z"></path>
</symbol>
<symbol id="icon-tell-modal" viewBox="0 0 32 32">
<path stroke-linejoin="round" stroke-linecap="round" stroke-miterlimit="4" stroke-width="2.9091" d="M30.383 23.157v4.364c0.002 0.405-0.081 0.806-0.244 1.177s-0.4 0.704-0.699 0.978c-0.298 0.274-0.651 0.482-1.035 0.612s-0.79 0.178-1.194 0.142c-4.476-0.486-8.775-2.016-12.553-4.465-3.514-2.233-6.494-5.213-8.727-8.727-2.458-3.795-3.988-8.115-4.465-12.611-0.036-0.402 0.011-0.808 0.14-1.19s0.336-0.734 0.608-1.033c0.272-0.298 0.604-0.537 0.973-0.7s0.769-0.248 1.173-0.248h4.364c0.706-0.007 1.39 0.243 1.925 0.703s0.885 1.099 0.984 1.798c0.184 1.396 0.526 2.768 1.018 4.087 0.196 0.521 0.238 1.086 0.122 1.63s-0.386 1.043-0.777 1.439l-1.847 1.847c2.071 3.641 5.086 6.657 8.727 8.727l1.847-1.847c0.395-0.391 0.895-0.661 1.439-0.777s1.11-0.074 1.63 0.122c1.32 0.492 2.691 0.834 4.087 1.018 0.707 0.1 1.352 0.456 1.813 1s0.706 1.239 0.689 1.953z"></path>
</symbol>
<symbol id="icon-facebook" viewBox="0 0 33 32">
<path fill="#fea5bb" style="fill: var(--color3, #fea5bb)" d="M16.471 32c8.837 0 16-7.163 16-16s-7.163-16-16-16c-8.837 0-16 7.163-16 16s7.163 16 16 16z"></path>
<path fill="#fff" style="fill: var(--color1, #fff)" d="M20.916 15.981h-2.61v9.618h-3.955v-9.618h-1.881v-3.38h1.881v-2.188c0-1.564 0.739-4.014 3.99-4.014l2.929 0.012v3.281h-2.125c-0.349 0-0.839 0.175-0.839 0.921v1.989h2.955l-0.346 3.377z"></path>
</symbol>
<symbol id="icon-quotes-left" viewBox="0 0 32 32">
<path d="M7.031 14c3.866 0 7 3.134 7 7s-3.134 7-7 7-7-3.134-7-7l-0.031-1c0-7.732 6.268-14 14-14v4c-2.671 0-5.182 1.040-7.071 2.929-0.364 0.364-0.695 0.751-0.995 1.157 0.357-0.056 0.724-0.086 1.097-0.086zM25.031 14c3.866 0 7 3.134 7 7s-3.134 7-7 7-7-3.134-7-7l-0.031-1c0-7.732 6.268-14 14-14v4c-2.671 0-5.182 1.040-7.071 2.929-0.364 0.364-0.695 0.751-0.995 1.157 0.358-0.056 0.724-0.086 1.097-0.086z"></path>
</symbol>
</defs>
</svg>
