<svg width="17" height="17" viewBox="0 0 17 17" fill="none" xmlns="http://www.w3.org/2000/svg">
<path d="M15.1695 16.7693H2.36953C1.94518 16.7693 1.53822 16.5979 1.23816 16.2927C0.938102 15.9876 0.769531 15.5738 0.769531 15.1423V6.23344C0.78283 5.96453 0.860555 5.703 0.99594 5.47161C1.13133 5.24021 1.32027 5.04597 1.54633 4.90579L7.94633 1.00091C8.19491 0.849345 8.4793 0.769287 8.76913 0.769287C9.05897 0.769287 9.34336 0.849345 9.59193 1.00091L15.9919 4.90579C16.4727 5.20109 16.7679 5.72988 16.7695 6.30097V15.1423C16.7695 15.5738 16.601 15.9876 16.3009 16.2927C16.0008 16.5979 15.5939 16.7693 15.1695 16.7693ZM2.36953 6.89971V15.1423H15.1695V6.89971L8.76953 11.2382L2.36953 6.89971ZM8.76953 2.39609L3.42233 5.65829L8.76953 9.28331L14.1159 5.65829L8.76953 2.39609V2.39609Z" fill="white"/>
</svg>
